<svg width="34" height="50" viewBox="0 0 34 50" fill="none" xmlns="http://www.w3.org/2000/svg">
<g id="adrasse">
<path id="Union" fill-rule="evenodd" clip-rule="evenodd" d="M12.7319 0.55253C5.5652 2.429 -0.225606 9.42624 0.00675686 17.8625C0.106629 18.6023 0.191887 19.3451 0.277135 20.0878C0.461536 21.6943 0.645885 23.3003 0.977976 24.8755C3.0823 34.8772 8.52066 42.8311 16.0346 49.4778C16.7056 50.0735 17.2277 50.2421 18.0345 49.5437C24.679 43.7931 29.6474 36.8802 32.2635 28.4071C33.7438 23.6105 34.6132 18.7005 33.4853 13.6509C31.3288 3.99976 22.0578 -1.89057 12.7319 0.55253ZM26.1178 16.5551C26.1162 21.9046 22.1124 26.1663 17.0849 26.1663C12.0016 26.1681 8.03498 21.9655 8.05187 16.5963C8.06876 11.2109 12.0337 7.49642 17.0967 7.5C22.0786 7.50179 26.1178 11.2898 26.1178 16.5551Z" fill="#7371B4"/>
</g>
</svg>
