<svg width="77" height="70" viewBox="0 0 77 70" fill="none" xmlns="http://www.w3.org/2000/svg">
<g id="icons_24_">
<g id="Group">
<g id="Group_2">
<path id="Vector" d="M18.8035 16.3506L18.8037 16.3516C18.807 16.3509 18.8101 16.3499 18.8136 16.3493C18.8167 16.3489 18.8202 16.3488 18.8233 16.3483L18.8231 16.3475C22.2526 15.7216 24.5614 12.4623 23.9948 9.00843C23.4279 5.55491 20.199 3.2043 16.7495 3.70743V3.7066C16.7462 3.7071 16.7431 3.70792 16.7398 3.70858C16.7366 3.70907 16.7334 3.70924 16.7299 3.7099L16.7301 3.71056C13.3011 4.33637 10.9921 7.5954 11.5586 11.0489C12.1253 14.5026 15.3547 16.8534 18.8035 16.3506Z" fill="white"/>
<path id="Vector_2" d="M42.3325 54.1647L29.9533 41.6187C29.1034 40.6011 26.8109 26.1743 26.7126 25.5754C26.4606 24.04 26.8964 23.0655 26.8964 23.0655C26.8964 23.0655 33.1178 7.08032 33.748 5.32046C34.3786 3.56043 34.3425 2.40942 33.127 1.53574C31.9102 0.66174 29.8344 0.635719 29.342 2.15678L22.6766 18.1512C22.6766 18.1512 20.9776 17.532 19.1011 17.8073C19.0852 17.8103 19.0701 17.8133 19.0543 17.8164C19.0386 17.8187 19.0233 17.8202 19.0072 17.8228C17.1415 18.1616 15.7291 19.2913 15.7291 19.2913L4.30273 6.26544C2.95416 4.94793 1.39151 5.66943 0.517556 6.88648C-0.354919 8.10271 0.143073 9.4744 1.1384 10.6712C2.13373 11.8682 13.301 25.2967 13.301 25.2967C13.301 25.2967 14.0248 26.081 14.2766 27.6162C14.2965 27.7381 14.3023 27.7731 16.6964 42.3621L18.3025 67.045C18.4073 68.6542 19.7451 69.8895 21.3351 69.8895C21.4015 69.8895 21.4685 69.8874 21.5357 69.8831C23.2121 69.7739 24.4828 68.3263 24.3736 66.6497C24.3736 66.6497 22.9257 45.187 22.9257 44.3978C22.9257 43.9133 23.3976 43.637 23.9538 44.201C24.5101 44.7647 38.0021 58.4382 38.0021 58.4382C39.182 59.634 41.1081 59.647 42.304 58.4669C43.4996 57.2865 43.5124 55.3605 42.3325 54.1647Z" fill="white"/>
</g>
<g id="Group_3">
<path id="Vector_3" d="M56.2914 22.2905L56.2911 22.2912C56.2937 22.2922 56.2959 22.2925 56.2985 22.2933C56.3013 22.2942 56.3031 22.2953 56.3058 22.2961L56.3061 22.2956C56.328 22.3027 56.3499 22.3083 56.3713 22.3149C56.3927 22.323 56.4135 22.332 56.435 22.3398L56.4347 22.3404C56.4375 22.3411 56.4395 22.3418 56.4423 22.3426C56.4446 22.3432 56.4467 22.3446 56.4494 22.3454L56.4495 22.3449C59.0307 23.1784 61.8135 21.7942 62.6968 19.2176C63.5798 16.6414 62.2314 13.8412 59.6817 12.9161L59.6819 12.9156C59.6791 12.9146 59.6769 12.914 59.6741 12.9133C59.6718 12.9125 59.6697 12.9115 59.667 12.9105L59.6669 12.911C59.645 12.9041 59.6232 12.8983 59.6017 12.8918C59.5803 12.8837 59.5597 12.8748 59.5378 12.8669L59.5384 12.8664C59.5358 12.8654 59.5333 12.8651 59.5309 12.8641C59.5282 12.8634 59.5262 12.8623 59.5234 12.8614L59.5233 12.8619C56.9422 12.0283 54.1598 13.4125 53.2766 15.9886C52.3934 18.5646 53.7415 21.3655 56.2914 22.2905Z" fill="white"/>
<path id="Vector_4" d="M76.8108 24.354C76.5488 23.2179 75.4464 22.7222 73.4554 23.1364L58.514 24.7448C58.514 24.7448 57.8166 23.9126 56.0293 23.3001C54.242 22.6875 53.1885 22.9192 53.1885 22.9192L42.376 12.4824C41.0579 10.9336 39.883 10.6487 38.9794 11.385C37.8919 12.2711 37.6913 13.6724 38.3281 14.4632C39.2882 15.6557 48.9625 25.5735 49.313 26.1417C49.6634 26.71 49.5208 26.9458 49.1277 28.0911C48.9609 28.5777 46.3892 35.744 45.4138 38.4008L32.6398 47.0092C31.5252 47.7603 31.2306 49.2729 31.9815 50.3875C32.7325 51.5022 34.2449 51.797 35.3596 51.0457C35.3596 51.0457 48.8308 41.9926 49.1568 41.7481C49.4829 41.5035 49.92 41.6568 49.7726 42.1216C49.6254 42.586 43.9917 60.3806 43.9917 60.3806C43.5859 61.6621 44.2958 63.0296 45.5772 63.4354C45.8214 63.513 46.0689 63.5496 46.3123 63.5496C47.345 63.5496 48.3035 62.8872 48.6319 61.85L54.9903 41.7668C55.0172 41.682 55.0374 41.5965 55.0547 41.5109C58.6689 30.9685 58.6426 31.0451 58.5481 31.3208C58.9407 30.1755 58.9726 29.9015 59.5977 29.6678C60.2229 29.4341 73.947 27.5376 75.4372 27.1848C76.4248 26.9504 77.126 25.7209 76.8108 24.354Z" fill="white"/>
</g>
</g>
</g>
</svg>
