<svg width="153" height="153" viewBox="0 0 153 153" fill="none" xmlns="http://www.w3.org/2000/svg">
<path d="M120.969 0.175057C91.3611 -0.0623083 61.7489 -0.05044 32.1407 0.163188C14.8159 0.287805 0.861197 13.6099 0.264608 30.8525C-0.25889 45.9983 0.155957 61.1758 0.155957 76.3415C0.120399 76.3415 0.0848406 76.3415 0.0492822 76.3415C0.0492822 90.5122 0.0315031 104.683 0.0670614 118.854C0.0729878 121.083 0.130276 123.342 0.487835 125.535C3.22385 142.327 18.2058 153.149 33.565 152.998C62.4245 152.716 91.2899 152.927 120.153 152.913C138.47 152.905 152.946 138.497 152.972 120.165C153.013 91.0779 153.005 61.9908 152.972 32.9037C152.95 14.769 139.086 0.321432 120.969 0.175057ZM81.4877 65.3416C81.4581 66.7539 81.8927 67.2069 83.3111 67.1851C88.2043 67.1139 93.0975 67.1456 97.9907 67.1634C101.345 67.1752 102.443 68.4531 102.027 71.7979C101.689 74.5098 101.373 77.2237 100.991 79.9277C100.61 82.6336 99.6106 83.5059 96.9003 83.5198C92.5049 83.5415 88.1075 83.6009 83.7141 83.4881C81.9895 83.4446 81.4462 83.9312 81.4759 85.6976C81.5035 87.3691 81.5193 89.0405 81.5292 90.7139C81.5371 92.3438 81.6023 92.9906 81.5193 104.345C81.4877 108.574 81.4739 114.759 81.5568 122.99C81.6043 123.391 81.6378 124.196 81.1341 124.701C80.7746 125.061 80.2906 125.116 80.0535 125.138C76.1421 125.521 71.2884 125.397 69.2596 125.395C67.5745 125.393 66.085 125.472 65.6149 124.633C65.3818 124.218 65.3324 123.456 65.2692 122.475C65.2415 122.05 65.2375 121.698 65.2375 121.449C65.119 102.287 65.0914 88.5223 65.3047 86.2079C65.3363 85.8737 65.4746 84.6136 64.7318 83.9114C64.319 83.5198 63.6394 83.3971 62.5707 83.4684C59.5166 83.6741 56.4369 83.5 53.367 83.5297C51.6009 83.5475 50.7989 82.7464 50.8187 80.9681C50.8601 77.1564 50.8562 73.3447 50.8305 69.5331C50.8206 67.8695 51.5595 67.1218 53.2406 67.1436C56.6403 67.1871 60.0441 67.0941 63.4419 67.1851C64.8741 67.2227 65.281 66.744 65.2632 65.3416C65.1941 59.9554 65.2297 54.5692 65.2435 49.181C65.2751 36.5947 73.9414 27.9052 86.4777 27.8874C90.7072 27.8815 94.9386 27.9507 99.1681 27.8637C101.27 27.8201 102.228 28.5837 102.181 30.7496C102.104 34.3121 102.092 37.8785 102.181 41.439C102.236 43.6227 101.262 44.3941 99.178 44.3368C96.195 44.2537 93.2061 44.2834 90.2212 44.3269C85.1482 44.4021 81.6576 47.8082 81.541 52.9136C81.4462 57.0556 81.5746 61.2016 81.4897 65.3436L81.4877 65.3416Z" fill="#F8F2EA"/>
</svg>
