<svg width="153" height="153" viewBox="0 0 153 153" fill="none" xmlns="http://www.w3.org/2000/svg">
<path d="M98.3094 39.2503C83.7613 39.2364 69.2113 39.2344 54.6632 39.2542C45.0059 39.2661 37.9394 46.3085 37.8939 55.9706C37.8603 63.276 37.888 70.5814 37.8821 77.8868C37.8821 85.0202 37.8702 92.1535 37.8841 99.2869C37.9058 109.663 44.7787 116.498 55.2303 116.509C69.5215 116.527 83.8107 116.531 98.1019 116.509C108.139 116.494 115.189 109.471 115.197 99.5084C115.211 85.0696 115.211 70.6308 115.197 56.192C115.187 46.3303 108.141 39.2601 98.3094 39.2522V39.2503ZM76.5584 101.948C63.2375 102.059 52.3037 91.0404 52.4282 77.6337C52.5507 64.4385 63.5932 53.5269 76.6968 53.6554C89.9189 53.7839 100.618 64.7074 100.57 78.0291C100.523 91.2362 89.8813 101.837 76.5584 101.948ZM107.022 52.3229C106.953 55.0315 104.975 56.8979 102.19 56.8801C99.5623 56.8643 97.3708 54.7863 97.3075 52.2497C97.2443 49.7032 99.6137 47.3663 102.256 47.3702C105.008 47.3742 107.093 49.5411 107.022 52.3229Z" fill="#F8F2EA"/>
<path d="M76.3529 63.0862C68.3418 63.1218 61.8661 69.6344 61.876 77.6515C61.8839 85.8407 68.326 92.3552 76.4577 92.4007C84.4767 92.4442 91.2192 85.7873 91.2548 77.7879C91.2923 69.6403 84.6111 63.0506 76.3529 63.0862Z" fill="#F8F2EA"/>
<path d="M152.98 34.7346C152.974 32.4194 153.016 30.0627 152.617 27.7989C149.722 11.3593 136.92 0.23416 120.252 0.137282C91.1222 -0.0347254 61.9905 -0.0564735 32.8607 0.137282C13.7735 0.259863 0.0197846 14.5029 0.0158324 33.5958C0.00792794 62.3468 0.027689 91.0978 2.35158e-05 119.849C-0.0059048 125.432 1.10862 130.776 3.84553 135.6C10.3113 146.998 20.2927 152.864 33.3745 152.928C61.5083 153.062 89.6441 152.963 117.778 152.979C120.189 152.979 122.578 152.851 124.973 152.564C139.501 150.82 152.405 137.471 152.753 122.971C153.125 107.488 152.836 91.9875 152.836 76.4949H152.994C152.994 62.5742 153.01 48.6554 152.978 34.7346H152.98ZM124.89 101.99C124.884 115.861 114.841 125.954 100.999 125.996C92.7822 126.019 84.5635 126 76.3469 125.996C68.0413 125.992 59.7338 126.047 51.4282 125.98C38.461 125.877 28.3137 115.946 28.207 102.998C28.0667 86.1452 28.0706 69.2904 28.203 52.4395C28.3038 39.5805 38.4116 29.5941 51.2404 29.5368C68.1203 29.4597 85.0022 29.4498 101.884 29.5368C114.733 29.604 124.878 39.9284 124.89 52.7658C124.906 69.1737 124.9 85.5797 124.89 101.988V101.99Z" fill="#F8F2EA"/>
</svg>
