<svg width="197" height="55" viewBox="0 0 197 55" fill="none" xmlns="http://www.w3.org/2000/svg">
<g clip-path="url(#clip0_337_2978)">
<path d="M0 0V55H19.3644C24.3812 55 27.9377 50.38 27.9377 44.44V0H0ZM15.2116 45.1H12.6713V9.83191H13.4745V9.82667H14.4085V9.83191H15.2116V45.1Z" fill="#F3EADC"/>
<path d="M108.374 0V55H121.848V51.3333H127.738C132.755 51.3333 136.254 46.7867 136.254 40.8467V0H108.371H108.374ZM123.586 41.4333H121.045V9.86595H121.848V9.82667H122.782V9.86595H123.586V41.4333Z" fill="#F3EADC"/>
<path d="M194.201 38.1333C195.893 36.2267 196.942 33.44 196.942 30.2133V0H169.059V55H181.731V43.9869H184.271V55H197V38.1333H194.201ZM184.271 34.1H181.731V9.81095H184.271V34.1Z" fill="#F3EADC"/>
<path d="M138.861 0V55H166.452V45.7757H151.499L151.462 43.3984H166.452V33.0859H154.042H152.452H151.462L151.499 30.4648V9.81095H154.042V30.7698H166.452V0H138.861Z" fill="#F3EADC"/>
<path d="M30.4811 0V9.79262H45.422V45.1H42.8816V12.0312H30.4841V55H49.3831C54.9232 55 58.075 50.6733 58.075 44.22V0H30.4841H30.4811Z" fill="#F3EADC"/>
<path d="M81.7962 16.9662H74.6832C72.6144 16.9662 71.145 18.349 71.145 20.1273V33.4269H81.7962V16.9662Z" fill="#ACBA44"/>
<path d="M84.6196 21.5735V38.0342H91.7325C93.8013 38.0342 95.2708 36.6513 95.2708 34.873V21.5735H84.6196Z" fill="#ACBA44"/>
</g>
<defs>
<clipPath id="clip0_337_2978">
<rect width="197" height="55" fill="white"/>
</clipPath>
</defs>
</svg>
