<svg width="54" height="37" viewBox="0 0 54 37" fill="none" xmlns="http://www.w3.org/2000/svg">
<g id="mail icon">
<path id="Vector" d="M1.00586 36.2368C3.20919 34.5023 5.40678 32.7535 7.62162 31.0334C12.6065 27.1617 17.6143 23.316 22.579 19.4155C23.2377 18.8978 23.6519 18.7712 24.4199 19.2688C26.1314 20.3791 27.9119 20.3072 29.701 19.2832C30.0807 19.0646 30.8458 19.0157 31.1536 19.2516C38.313 24.7685 45.435 30.3315 52.5599 35.8945C52.7008 36.0038 52.8015 36.1678 53.1294 36.5532H1.14105C1.09503 36.4468 1.05188 36.3432 1.00586 36.2368Z" fill="#ACDDDD"/>
<path id="Vector_2" d="M52.2332 0C49.725 1.92432 47.5101 3.63004 45.2867 5.32425C40.2299 9.17865 35.1617 13.0187 30.1107 16.8817C27.3637 18.9815 26.7079 18.993 23.9724 16.9133C17.0805 11.6754 10.1857 6.44317 3.29385 1.20522C2.88253 0.891689 2.48846 0.552272 1.8125 0H52.2332Z" fill="#ACDDDD"/>
<path id="Vector_3" d="M0 34.8079V0.791382C7.52183 6.48956 14.7474 11.9663 22.2002 17.6127C14.7733 23.3655 7.50457 28.9975 0 34.8079Z" fill="#ACDDDD"/>
<path id="Vector_4" d="M53.9705 34.7381C46.5493 28.9939 39.2806 23.3647 31.8652 17.6234C39.2605 12.023 46.4861 6.54918 53.9705 0.879761V34.7381Z" fill="#ACDDDD"/>
</g>
</svg>
