<?xml version="1.0" encoding="UTF-8"?>
<svg id="Layer_2" data-name="Layer 2" xmlns="http://www.w3.org/2000/svg" viewBox="0 0 70.75 70.75">
  <defs>
    <style>
      .cls-1 {
        fill: #fff;
        stroke-width: 0px;
      }
    </style>
  </defs>
  <g id="Layer_1-2" data-name="Layer 1">
    <path id="Vector" class="cls-1" d="m40.26,13.28s-.06,0-.08,0c-.99,0-1.8.81-1.8,1.8s.75,1.74,1.69,1.8h0c8.48.55,15.15,7.57,15.15,16.14,0,.45-.02.89-.05,1.33v-.06c0,.99.81,1.8,1.81,1.8s1.8-.81,1.8-1.8c.02-.34.03-.74.03-1.15,0-10.52-8.16-19.13-18.49-19.85h-.06s0,0,0,0Zm-.18-9.33c1.08.05,26.4,1.65,26.4,30.33,0,.99.81,1.8,1.8,1.8s1.8-.81,1.8-1.8c.04-.57.06-1.24.06-1.91C70.15,15.42,57.01,1.54,40.36.36h-.1s-.05,0-.07,0c-.97,0-1.76.75-1.82,1.7h0s0,.06,0,.09c0,.96.76,1.75,1.71,1.8h0Zm30.43,48.98c-.26-1.62-.8-3.08-1.57-4.38l.03.06c-.27-.45-.72-.76-1.25-.85h0s-21.53-3.42-21.53-3.42c-.08-.01-.18-.02-.28-.02-.5,0-.95.2-1.27.52-1.62,1.63-2.87,3.64-3.59,5.88l-.03.11c-9.64-3.94-17.14-11.44-20.99-20.83l-.09-.25c2.35-.75,4.35-2,5.99-3.62.33-.33.53-.78.53-1.27,0-.1,0-.19-.02-.29h0s-3.42-21.52-3.42-21.52c-.09-.54-.4-.99-.84-1.26h0c-1.21-.73-2.63-1.26-4.14-1.51h-.07c-.76-.18-1.63-.28-2.52-.28-.06,0-.12,0-.18,0h0-.01C6.84.06.05,6.86,0,15.25h0c.04,30.64,24.86,55.47,55.49,55.5h0c8.4-.06,15.2-6.85,15.25-15.25h0v-.17c0-.85-.09-1.69-.25-2.49v.08s.01,0,.01,0Z"/>
  </g>
</svg>