<svg width="71" height="71" viewBox="0 0 71 71" fill="none" xmlns="http://www.w3.org/2000/svg">
<path id="Vector" d="M40.3866 13.3118C40.3602 13.3094 40.3314 13.3094 40.3025 13.3094C39.3086 13.3094 38.502 14.116 38.502 15.11C38.502 16.0679 39.251 16.8529 40.1969 16.9081H40.2017C48.6836 17.4627 55.3529 24.4777 55.3529 33.0484C55.3529 33.4949 55.3337 33.9367 55.3 34.3736L55.3048 34.316C55.3048 35.3099 56.1115 36.1165 57.1054 36.1165C58.0993 36.1165 58.906 35.3099 58.906 34.316C58.9276 33.9727 58.9396 33.5717 58.9396 33.166C58.9396 22.6507 50.7842 14.0392 40.4538 13.3142L40.3914 13.3118H40.3866ZM40.2089 3.98248C41.2869 4.0353 66.6124 5.6342 66.6124 34.316C66.6124 35.3099 67.419 36.1165 68.4129 36.1165C69.4069 36.1165 70.2135 35.3099 70.2135 34.316C70.2495 33.7446 70.2711 33.0796 70.2711 32.4074C70.2711 15.4605 57.1366 1.57933 40.4898 0.393356L40.3866 0.388555C40.365 0.388555 40.341 0.386154 40.3169 0.386154C39.3494 0.386154 38.5596 1.13999 38.4996 2.09069V2.09549C38.4972 2.1219 38.4972 2.15311 38.4972 2.18432C38.4972 3.14702 39.2534 3.93446 40.2041 3.98248H40.2089ZM70.636 52.9602C70.3744 51.3397 69.8342 49.8848 69.0659 48.5836L69.0972 48.6413C68.8235 48.1947 68.3745 47.8802 67.8464 47.7938L67.8368 47.7914L46.3044 44.3727C46.2204 44.3583 46.122 44.3511 46.0235 44.3511C45.5266 44.3511 45.0752 44.5504 44.7487 44.8745C43.1258 46.507 41.8822 48.514 41.1572 50.7587L41.1284 50.8643C31.487 46.9271 23.9846 39.4248 20.141 30.0378L20.0498 29.7858C22.3977 29.0319 24.4048 27.7859 26.0349 26.163C26.3614 25.8365 26.563 25.3852 26.563 24.8882C26.563 24.7898 26.5558 24.6938 26.539 24.6001L26.5414 24.6097L23.1204 3.0774C23.0339 2.53963 22.7194 2.08829 22.2801 1.8194L22.2729 1.8146C21.0605 1.09197 19.6465 0.561409 18.134 0.311731L18.0644 0.302128C17.3082 0.134075 16.4391 0.0356445 15.5484 0.0356445C15.4884 0.0356445 15.4284 0.0356444 15.3683 0.0380451H15.3779H15.3635C6.96812 0.0956631 0.176392 6.89219 0.125977 15.2852V15.29C0.161988 45.926 24.9858 70.7522 55.6193 70.7882H55.6241C64.0268 70.733 70.8233 63.9364 70.8785 55.541V55.5362C70.8785 55.4882 70.8785 55.4306 70.8785 55.373C70.8785 54.5183 70.7921 53.6852 70.624 52.881L70.6384 52.9602H70.636ZM55.6217 67.1871C26.9736 67.1535 3.76071 43.9382 3.7271 15.2924C3.77272 8.87521 8.96554 3.68239 15.3803 3.63917H15.3852C15.4236 3.63917 15.4716 3.63917 15.5172 3.63917C16.1702 3.63917 16.8064 3.71119 17.421 3.84564L17.3634 3.83363C18.242 3.97768 19.0319 4.22015 19.7713 4.55386L19.7113 4.52985L22.8371 24.2208C21.3294 25.4884 19.4664 26.3839 17.4186 26.7416L17.349 26.7512C16.4967 26.9049 15.8605 27.6395 15.8605 28.5254C15.8605 28.7366 15.8965 28.9383 15.9637 29.1255L15.9589 29.1135C20.2131 41.2902 29.6312 50.7059 41.5173 54.8712L41.8078 54.96C41.9831 55.0224 42.1847 55.0585 42.396 55.0585C43.2795 55.0585 44.0141 54.4223 44.1654 53.582L44.1678 53.57C44.5351 51.4525 45.4306 49.5895 46.715 48.0603L46.7005 48.0771L66.3891 51.2053C66.7084 51.9111 66.9581 52.7321 67.0997 53.5916L67.1069 53.6492C67.2174 54.175 67.2822 54.78 67.2822 55.3994C67.2822 55.4426 67.2822 55.4834 67.2822 55.5266V55.5194C67.2438 61.9414 62.051 67.139 55.6337 67.1847H55.6289L55.6217 67.1871Z" fill="white"/>
</svg>
