<svg width="153" height="153" viewBox="0 0 153 153" fill="none" xmlns="http://www.w3.org/2000/svg">
<g clip-path="url(#clip0_346_2994)">
<path d="M73.8059 0H74.4052C75.7358 0.3776 77.0644 0.389588 78.395 0H78.7946C78.9824 0.533435 79.4539 0.345634 79.8055 0.355623C84.3367 0.497473 88.808 1.10683 93.2193 2.12175C108.557 5.65002 121.601 13.1721 132.348 24.6739C137.934 30.6515 142.415 37.3664 145.828 44.7986C150.648 55.2994 152.876 66.3458 152.782 77.8795C152.778 78.3151 152.57 78.8146 152.998 79.1902V79.5897C152.473 79.7296 152.652 80.1771 152.642 80.4988C152.594 82.161 152.417 83.8093 152.233 85.4615C151.332 93.5909 149.146 101.367 145.668 108.759C138.567 123.849 127.709 135.473 113.132 143.564C104.493 148.359 95.2312 151.296 85.4036 152.445C83.7993 152.632 82.165 152.586 80.5867 152.996H72.0098C71.8339 152.8 71.5922 152.816 71.3624 152.802C69.0069 152.666 66.6654 152.395 64.3379 152.015C48.7244 149.472 35.1668 142.743 23.7069 131.868C14.3148 122.956 7.6479 112.281 3.67211 99.9462C1.7042 93.8466 0.523446 87.5973 0.193795 81.192C0.183805 80.7165 0.347632 80.2171 0 79.7895V73.6061C0.343636 73.1725 0.183805 72.6731 0.187801 72.1956C0.289693 69.0689 0.675285 65.9682 1.25667 62.9014C4.41533 46.269 12.0912 32.082 24.554 20.6002C38.2016 8.0295 54.3505 1.29463 72.8988 0.357621C73.2205 0.341638 73.666 0.527442 73.8059 0ZM132.314 61.8086C132.3 59.0435 131.059 56.9817 128.702 55.5752C125.1 53.4254 121.33 51.6034 117.446 50.029C102.481 43.9694 86.8221 41.3402 70.7811 40.7369C61.369 40.3832 51.981 40.8388 42.6648 42.3132C37.8719 43.0724 33.1149 44.0274 28.4938 45.5338C24.8517 46.7205 22.8898 50.5824 23.9067 54.2346C24.8277 57.5451 28.5418 60.43 33.1689 59.0415C42.9525 56.1046 53.0219 55.1196 63.1811 54.9199C69.864 54.788 76.527 55.2055 83.1639 56.0287C90.9957 57.0016 98.6915 58.594 106.192 61.0733C111.604 62.8634 116.75 65.2229 121.735 67.998C126.602 70.7071 132.298 67.2987 132.318 61.8086H132.314ZM61.1113 66.9511C57.3333 66.8952 51.1838 67.4266 45.0763 68.4515C41.0425 69.1268 37.0608 70.0358 33.1489 71.2346C30.2719 72.1176 28.4139 74.8787 28.8295 77.6038C29.4149 81.4478 32.7433 83.7034 36.4814 82.6265C45.9454 79.8994 55.5891 78.7286 65.4247 78.9284C70.5173 79.0303 75.58 79.4359 80.5987 80.265C91.9766 82.147 102.803 85.6154 112.723 91.637C114.139 92.4961 115.686 92.6339 117.246 92.1984C119.785 91.4891 121.264 89.725 121.585 87.1577C121.899 84.6524 120.826 82.6745 118.684 81.3499C114.521 78.7726 110.137 76.6169 105.59 74.8088C92.0845 69.4345 78.0374 66.9651 61.1093 66.9511H61.1113ZM62.6297 91.8348C59.8087 91.9566 56.9897 92.0765 54.1746 92.3322C47.9472 92.8976 41.7937 93.9166 35.7082 95.3331C33.051 95.9504 31.5066 98.4318 32.09 100.983C32.6914 103.616 35.1228 105.171 37.8459 104.581C44.2132 103.205 50.6224 102.144 57.1295 101.656C64.25 101.123 71.3345 101.329 78.387 102.424C87.7811 103.882 96.5997 106.961 104.755 111.894C107.187 113.364 110.095 112.643 111.452 110.341C112.823 108.018 112.055 105.165 109.606 103.714C107.834 102.665 106.042 101.644 104.204 100.719C96.334 96.7596 88.0188 94.2162 79.31 92.9116C73.7759 92.0825 68.2138 91.8028 62.6297 91.8348Z" fill="#F8F2EA"/>
</g>
<defs>
<clipPath id="clip0_346_2994">
<rect width="153" height="153" fill="white"/>
</clipPath>
</defs>
</svg>
