<?xml version="1.0" encoding="UTF-8"?>
<svg id="Layer_2" data-name="Layer 2" xmlns="http://www.w3.org/2000/svg" viewBox="0 0 64.19 63.69">
  <defs>
    <style>
      .cls-1 {
        fill: #fff;
        stroke-width: 0px;
      }
    </style>
  </defs>
  <g id="Layer_1-2" data-name="Layer 1">
    <g>
      <path class="cls-1" d="m60.3,30.88c.16,0,.26-.09.29-.11,1.15-1.15,2.29-2.31,3.44-3.46.02-.02.16-.15.16-.37,0-.2-.13-.33-.16-.35l-6.39-6.68s-.21-.21-.49-.2c-.29,0-.46.21-.48.24-1.02,1.06-2.05,2.11-3.07,3.17-.04.03-.24.17-.27.43-.03.25.12.51.38.64,2.09,2.18,4.18,4.36,6.27,6.55.02.02.14.15.34.15Z"/>
      <path class="cls-1" d="m24.15,54.15c-.71,3.03-1.42,6.06-2.13,9.09-.08.11-.07.27.02.37.09.09.23.12.35.06,2.93-.68,5.87-1.36,8.8-2.03,8.65-9.08,17.29-18.17,25.94-27.25.02-.01.16-.12.16-.31,0-.13-.07-.22-.09-.24-2.2-2.29-4.39-4.59-6.59-6.88-.01-.02-.14-.18-.36-.17-.17,0-.28.12-.3.14l-25.8,27.23Z"/>
    </g>
    <g>
      <path class="cls-1" d="m39.31,61.02h3.67c.51,0,1-.24,1.37-.68.36-.44.57-1.03.57-1.64v-3.28l-5.61,5.61Z"/>
      <path class="cls-1" d="m23.85,47.29l4.68-5H5.8v-8.31h30.5c3.21-3.43,6.41-6.86,9.62-10.29V2.02c0-.54-.2-1.05-.56-1.43-.36-.38-.85-.59-1.35-.59H1.91c-.51,0-.99.21-1.35.59-.36.38-.56.89-.56,1.43v56.68c0,.54.2,1.05.56,1.43s.85.59,1.35.59h15.31s.01-.08.01-.12h.14c.39-1.67.77-3.34,1.16-5H5.8v-8.31h18.04ZM5.8,6.4h34.16v9.26H5.8V6.4Zm0,14.26h34.16v8.31H5.8v-8.31Z"/>
    </g>
  </g>
</svg>