<svg width="77" height="77" viewBox="0 0 77 77" fill="none" xmlns="http://www.w3.org/2000/svg">
<g id="Group 115">
<path id="Vector" d="M44.927 25.6082H15.051C14.485 25.6082 13.9422 25.3834 13.542 24.9832C13.1418 24.583 12.917 24.0402 12.917 23.4742V14.9382C12.917 14.3722 13.1418 13.8294 13.542 13.4292C13.9422 13.029 14.485 12.8042 15.051 12.8042H44.927C45.493 12.8042 46.0358 13.029 46.436 13.4292C46.8362 13.8294 47.061 14.3722 47.061 14.9382V23.4742C47.061 24.0402 46.8362 24.583 46.436 24.9832C46.0358 25.3834 45.493 25.6082 44.927 25.6082ZM17.185 21.3402H42.793V16.9442H17.185V21.3402Z" fill="white"/>
<path id="Vector_2" d="M44.927 30.0469H15.051C14.485 30.0469 13.9422 30.2717 13.542 30.6719C13.1418 31.0721 12.917 31.6149 12.917 32.1809V40.5462C12.917 41.1121 13.1418 41.6549 13.542 42.0551C13.9422 42.4553 14.485 42.6802 15.051 42.6802H39.2932L47.061 34.7844V32.1809C47.061 31.6149 46.8362 31.0721 46.436 30.6719C46.0358 30.2717 45.493 30.0469 44.927 30.0469ZM42.793 38.4122H17.185V34.1442H42.793V38.4122Z" fill="white"/>
<path id="Vector_3" d="M23.7149 67.2424V67.1144L24.3978 64.1481H8.64886V8.53607H51.3289V30.4096L55.5969 26.3763V6.40207C55.5969 5.8361 55.3721 5.2933 54.9719 4.8931C54.5716 4.4929 54.0289 4.26807 53.4629 4.26807H6.51486C5.94889 4.26807 5.4061 4.4929 5.00589 4.8931C4.60569 5.2933 4.38086 5.8361 4.38086 6.40207V66.1541C4.38086 66.7201 4.60569 67.2629 5.00589 67.6631C5.4061 68.0633 5.94889 68.2881 6.51486 68.2881H23.5869C23.6045 67.9369 23.6472 67.5875 23.7149 67.2424Z" fill="white"/>
<path id="Vector_4" d="M47.061 40.9087L45.3965 42.5946C45.8094 42.5094 46.1879 42.3039 46.4842 42.0038C46.7804 41.7038 46.9811 41.3227 47.061 40.9087Z" fill="white"/>
<path id="Vector_5" d="M12.917 57.4902C12.917 58.0562 13.1418 58.599 13.542 58.9992C13.9422 59.3994 14.485 59.6242 15.051 59.6242H25.3796L26.0198 56.85L26.2972 55.6763V55.5696H17.185V51.2162H30.7146L34.9826 46.9482H15.051C14.485 46.9482 13.9422 47.1731 13.542 47.5733C13.1418 47.9735 12.917 48.5163 12.917 49.0822V57.4902Z" fill="white"/>
<path id="Vector_6" d="M71.5806 35.5738L64.389 28.3822C64.0698 28.0622 63.6907 27.8082 63.2732 27.635C62.8558 27.4617 62.4082 27.3726 61.9562 27.3726C61.5043 27.3726 61.0567 27.4617 60.6393 27.635C60.2218 27.8082 59.8426 28.0622 59.5235 28.3822L30.2663 57.8101L27.8549 68.0746C27.7646 68.5174 27.7626 68.9737 27.8489 69.4173C27.9353 69.8609 28.1083 70.2832 28.358 70.6598C28.6078 71.0364 28.9294 71.3601 29.3045 71.6123C29.6796 71.8644 30.1007 72.0401 30.5437 72.1292C30.7637 72.1513 30.9853 72.1513 31.2053 72.1292C31.4667 72.1718 31.7334 72.1718 31.9949 72.1292L42.3448 69.8458L71.5806 40.546C71.9 40.2287 72.1534 39.8513 72.3264 39.4356C72.4994 39.0199 72.5884 38.5741 72.5884 38.1239C72.5884 37.6737 72.4994 37.2279 72.3264 36.8122C72.1534 36.3965 71.9 36.0192 71.5806 35.7018V35.5738ZM40.1681 65.9619L32.3576 67.6905L34.2569 59.9441L56.1944 37.7718L62.2123 43.7897L40.1681 65.9619ZM64.6237 41.3783L58.6059 35.3604L61.9989 32.01L68.0595 38.0706L64.6237 41.3783Z" fill="white"/>
</g>
</svg>
