<svg width="46" height="46" viewBox="0 0 46 46" fill="none" xmlns="http://www.w3.org/2000/svg">
<g id="tlf icon">
<path id="Vector" d="M36.3039 45.2298C28.4952 44.4793 22.2026 41.826 16.5991 37.5582C8.99972 31.7734 3.43869 24.5087 0.960341 15.1696C0.422261 13.1506 0.120088 11.0365 0.00346034 8.9514C-0.0469018 8.06611 0.45937 6.9562 1.07167 6.26646C2.73627 4.39282 4.57051 2.66452 6.37824 0.920371C7.80959 -0.461738 9.55901 -0.279395 10.6193 1.41455C12.3448 4.17084 13.9909 6.9747 15.6555 9.76798C16.3552 10.944 16.1697 12.0433 15.2393 13.0158C14.5396 13.7478 13.8053 14.4481 13.0923 15.1696C11.8174 16.4592 11.5974 17.2705 12.6258 18.7794C14.0306 20.846 15.4567 22.9575 17.2141 24.7096C19.8541 27.3417 22.7035 29.7861 25.6272 32.1037C27.7795 33.8109 28.6648 33.5862 30.6051 31.636C32.6743 29.5571 34.9671 29.2752 37.4835 30.7903C39.5192 32.0139 41.5602 33.2268 43.5905 34.461C45.6209 35.6951 45.8091 37.2939 44.1339 38.9799C42.6125 40.51 41.0353 41.9925 39.5616 43.5676C38.4563 44.7488 37.2317 45.4333 36.3039 45.2298Z" fill="#ACDDDD"/>
</g>
</svg>
